# xmcd
#
# Track frame offsets:
# 150
# 16550
# 38507
# 63540
# 79595
# 102614
# 123710
# 142549
# 158468
# 186273
# 203029
# 214750
# 231635
# 254311
# 283452
#
# Disc length: 3970 seconds
#
#
# Revision: 0
# Processed by: cddbd v1.5.2PL0 Copyright (c) Steve Scherf et al.
# Submitted via: FreeRIP 2.96 
#
DISCID=d00f800f
DTITLE=chicago blues reunion - buried alive in the blues
DYEAR=2005
DGENRE=
TTITLE0=born in chicago
TTITLE1=buried alive in the blues
TTITLE2=walk away
TTITLE3=drinkin wine
TTITLE4=gm boogie
TTITLE5=left handed soul
TTITLE6=i'm gonna miss you
TTITLE7=i need all the help i can get
TTITLE8=death of muddy waters
TTITLE9=i've gotta find my baby
TTITLE10=never truck
TTITLE11=i'm a king bee
TTITLE12=snake
TTITLE13=hound dog
TTITLE14=let's work together
EXTD=
EXTT0=
EXTT1=
EXTT2=
EXTT3=
EXTT4=
EXTT5=
EXTT6=
EXTT7=
EXTT8=
EXTT9=
EXTT10=
EXTT11=
EXTT12=
EXTT13=
EXTT14=
PLAYORDER=
